<svg width="2409" height="634" viewBox="0 0 2409 634" fill="none" xmlns="http://www.w3.org/2000/svg">
<path d="M199.219 156.531L199.219 512L113.525 512L113.525 156.531L199.219 156.531ZM306.152 156.531L306.152 222.693L9.03321 222.693L9.03321 156.531L306.152 156.531ZM444.58 516.883C423.096 516.883 403.89 513.546 386.963 506.873C370.036 500.037 355.713 490.678 343.994 478.797C332.438 466.915 323.568 453.243 317.383 437.781C311.361 422.319 308.35 405.962 308.35 388.709L308.35 379.432C308.35 360.063 311.035 342.159 316.406 325.721C321.777 309.119 329.753 294.633 340.332 282.264C350.911 269.894 364.176 260.291 380.127 253.455C396.077 246.456 414.632 242.957 435.791 242.957C454.508 242.957 471.273 245.968 486.084 251.99C500.895 258.012 513.428 266.639 523.682 277.869C534.098 289.1 541.992 302.69 547.363 318.641C552.897 334.591 555.664 352.495 555.664 372.352L555.664 405.799L339.844 405.799L339.844 354.285L475.342 354.285L475.342 347.937C475.505 339.148 473.958 331.661 470.703 325.477C467.611 319.292 463.053 314.572 457.031 311.316C451.009 308.061 443.685 306.434 435.059 306.434C426.107 306.434 418.701 308.387 412.842 312.293C407.145 316.199 402.669 321.57 399.414 328.406C396.322 335.079 394.124 342.811 392.822 351.6C391.52 360.389 390.869 369.666 390.869 379.432L390.869 388.709C390.869 398.475 392.171 407.345 394.775 415.32C397.542 423.296 401.449 430.132 406.494 435.828C411.702 441.362 417.887 445.675 425.049 448.768C432.373 451.86 440.674 453.406 449.951 453.406C461.182 453.406 472.249 451.29 483.154 447.059C494.059 442.827 503.418 435.828 511.23 426.062L548.584 470.496C543.213 478.146 535.563 485.551 525.635 492.713C515.869 499.874 504.15 505.734 490.479 510.291C476.807 514.686 461.507 516.883 444.58 516.883ZM700.684 453.406C708.333 453.406 714.844 452.023 720.215 449.256C725.749 446.326 729.899 442.257 732.666 437.049C735.596 431.678 736.979 425.249 736.816 417.762L814.209 417.762C814.372 437.618 809.489 455.034 799.561 470.008C789.795 484.819 776.449 496.375 759.521 504.676C742.757 512.814 723.796 516.883 702.637 516.883C681.966 516.883 663.9 513.546 648.438 506.873C632.975 500.037 620.036 490.597 609.619 478.553C599.365 466.346 591.634 452.104 586.426 435.828C581.38 419.552 578.857 401.893 578.857 382.85L578.857 377.234C578.857 358.191 581.38 340.532 586.426 324.256C591.634 307.817 599.365 293.576 609.619 281.531C620.036 269.324 632.894 259.884 648.193 253.211C663.656 246.375 681.641 242.957 702.148 242.957C724.121 242.957 743.49 247.107 760.254 255.408C777.181 263.709 790.446 275.753 800.049 291.541C809.652 307.329 814.372 326.453 814.209 348.914L736.816 348.914C736.979 340.939 735.758 333.777 733.154 327.43C730.55 321.082 726.481 316.036 720.947 312.293C715.576 308.387 708.659 306.434 700.195 306.434C691.732 306.434 684.896 308.305 679.688 312.049C674.479 315.792 670.492 321.001 667.725 327.674C665.12 334.184 663.33 341.671 662.354 350.135C661.54 358.598 661.133 367.631 661.133 377.234L661.133 382.85C661.133 392.615 661.54 401.811 662.354 410.437C663.33 418.901 665.202 426.388 667.969 432.898C670.736 439.246 674.723 444.292 679.932 448.035C685.14 451.616 692.057 453.406 700.684 453.406ZM929.932 137L929.932 512L847.656 512L847.656 137L929.932 137ZM920.166 370.887L900.879 371.375C900.879 352.82 903.158 335.73 907.715 320.105C912.272 304.48 918.783 290.89 927.246 279.334C935.71 267.778 945.882 258.826 957.764 252.478C969.645 246.131 982.829 242.957 997.314 242.957C1010.34 242.957 1022.22 244.829 1032.96 248.572C1043.86 252.316 1053.22 258.338 1061.04 266.639C1069.01 274.939 1075.11 285.763 1079.35 299.109C1083.74 312.456 1085.94 328.732 1085.94 347.937L1085.94 512L1003.17 512L1003.17 347.449C1003.17 336.707 1001.63 328.406 998.535 322.547C995.605 316.525 991.374 312.374 985.84 310.096C980.306 307.654 973.551 306.434 965.576 306.434C955.973 306.434 948.161 308.061 942.139 311.316C936.117 314.572 931.478 319.129 928.223 324.988C925.13 330.685 923.014 337.439 921.875 345.252C920.736 353.064 920.166 361.609 920.166 370.887ZM1277.34 391.395L1188.96 391.395L1188.96 325.232L1277.34 325.232C1289.39 325.232 1299.15 323.198 1306.64 319.129C1314.13 315.06 1319.58 309.445 1323 302.283C1326.58 294.959 1328.37 286.74 1328.37 277.625C1328.37 267.859 1326.58 258.826 1323 250.525C1319.58 242.225 1314.13 235.551 1306.64 230.506C1299.15 225.298 1289.39 222.693 1277.34 222.693L1221.19 222.693L1221.19 512L1135.5 512L1135.5 156.531L1277.34 156.531C1305.83 156.531 1330.32 161.74 1350.83 172.156C1371.5 182.573 1387.37 196.896 1398.44 215.125C1409.51 233.191 1415.04 253.862 1415.04 277.137C1415.04 300.086 1409.51 320.105 1398.44 337.195C1387.37 354.285 1371.5 367.631 1350.83 377.234C1330.32 386.674 1305.83 391.395 1277.34 391.395ZM1591.55 445.594L1591.55 336.707C1591.55 329.22 1590.49 322.791 1588.38 317.42C1586.26 312.049 1582.93 307.898 1578.37 304.969C1573.81 301.876 1567.71 300.33 1560.06 300.33C1553.87 300.33 1548.58 301.388 1544.19 303.504C1539.79 305.62 1536.46 308.794 1534.18 313.025C1531.9 317.257 1530.76 322.628 1530.76 329.139L1448.49 329.139C1448.49 316.932 1451.17 305.62 1456.54 295.203C1462.08 284.624 1469.89 275.428 1479.98 267.615C1490.23 259.803 1502.44 253.781 1516.6 249.549C1530.92 245.154 1546.88 242.957 1564.45 242.957C1585.45 242.957 1604.17 246.456 1620.61 253.455C1637.21 260.454 1650.31 270.952 1659.91 284.949C1669.51 298.784 1674.32 316.199 1674.32 337.195L1674.32 445.35C1674.32 462.602 1675.29 475.704 1677.25 484.656C1679.2 493.445 1681.97 501.176 1685.55 507.85L1685.55 512L1603.03 512C1599.12 503.862 1596.19 493.934 1594.24 482.215C1592.45 470.333 1591.55 458.126 1591.55 445.594ZM1601.56 350.623L1602.05 394.568L1565.67 394.568C1558.02 394.568 1551.51 395.626 1546.14 397.742C1540.93 399.858 1536.7 402.788 1533.45 406.531C1530.35 410.112 1528.08 414.181 1526.61 418.738C1525.31 423.296 1524.66 428.097 1524.66 433.143C1524.66 438.025 1525.8 442.42 1528.08 446.326C1530.52 450.07 1533.77 452.999 1537.84 455.115C1541.91 457.231 1546.47 458.289 1551.51 458.289C1560.63 458.289 1568.36 456.58 1574.71 453.162C1581.22 449.581 1586.18 445.268 1589.6 440.223C1593.02 435.177 1594.73 430.457 1594.73 426.062L1612.79 459.754C1609.54 466.264 1605.79 472.856 1601.56 479.529C1597.49 486.202 1592.37 492.387 1586.18 498.084C1580.16 503.618 1572.75 508.175 1563.96 511.756C1555.18 515.174 1544.51 516.883 1531.98 516.883C1515.71 516.883 1500.73 513.546 1487.06 506.873C1473.55 500.2 1462.73 490.922 1454.59 479.041C1446.45 466.997 1442.38 453.162 1442.38 437.537C1442.38 423.865 1444.82 411.658 1449.71 400.916C1454.75 390.174 1462.32 381.059 1472.41 373.572C1482.5 366.085 1495.36 360.389 1510.99 356.482C1526.61 352.576 1545 350.623 1566.16 350.623L1601.56 350.623ZM1806.88 137L1806.88 512L1724.37 512L1724.37 137L1806.88 137Z" fill="white"/>
<path d="M2352.68 212.48C2347.56 189.44 2337.32 166.4 2324.52 145.92L2350.12 92.16L2314.28 56.32L2260.52 81.92C2240.04 69.12 2219.56 61.44 2196.52 56.32L2178.6 0H2127.4L2106.92 56.32C2083.88 61.44 2063.4 71.68 2042.92 84.48L1989.16 58.88L1953.32 92.16L1978.92 145.92C1966.12 166.4 1958.44 186.88 1953.32 209.92L1897 230.4V281.6L1953.32 302.08C1958.44 325.12 1968.68 348.16 1978.92 366.08L1953.32 419.84L1989.16 455.68L2042.92 430.08C2063.4 442.88 2083.88 453.12 2106.92 458.24L2127.4 512H2178.6L2199.08 455.68C2206.76 453.12 2217 450.56 2224.68 448L2183.72 407.04C2086.44 424.96 1999.4 353.28 1999.4 256C1999.4 171.52 2068.52 102.4 2153 102.4C2247.72 102.4 2319.4 186.88 2304.04 276.48L2347.56 320C2350.12 312.32 2352.68 307.2 2352.68 299.52L2409 281.6V230.4L2352.68 212.48Z" fill="white"/>
<path d="M2398.76 445.44L2247.72 294.4C2283.56 215.04 2209.32 130.56 2127.4 153.6L2173.48 199.68C2193.96 220.16 2193.96 253.44 2173.48 271.36C2155.56 291.84 2119.72 291.84 2101.8 271.36L2055.72 227.84C2032.68 299.52 2106.92 381.44 2191.4 348.16L2342.44 499.2C2357.8 514.56 2380.84 514.56 2396.2 499.2C2411.56 486.4 2411.56 460.8 2398.76 445.44Z" fill="white"/>
</svg>
